<svg xmlns="http://www.w3.org/2000/svg" width="95.644" height="57.333" xmlns:v="https://vecta.io/nano"><g fill="#999"><path d="M11 37.834v-4.75h7.25v4.75z"/><path d="M5.625 35.084v-4h12.5v4z"/><path d="M3 33.084v-7.5h5.25v7.5z"/></g><path d="M0 31.959v-5.75h3.125v5.75z"/><path d="M2.75 26.209v-3h5.375v3z"/><path d="M8.125 31.959v-5.75h3v5.75z"/><path d="M8.125 31.959v-3.375h11v3.375zm3.375 8.375v-2.75h8.375v2.75z"/><path d="M5.5 37.584v-3h6.125v3z"/><path d="M2.875 34.834v-3.125h2.75v3.125z"/><path d="M0 31.959v-5.875h3v5.875z"/><path d="M59.569 55.12v-4.556h6.222v4.556z" fill="#999"/><path d="M65.569 56.898v-8.111h2.444v8.111z"/><path d="M59.569 57.231v-2.444h8.444v2.444zm-2.778-2.444v-6.111h2.667v6.111z"/><path d="M73.694 55.12v-4.556h6.222v4.556z" fill="#999"/><path d="M79.694 56.898v-8.111h2.444v8.111z"/><path d="M73.694 57.231v-2.444h8.444v2.444zm-2.778-2.444v-6.111h2.667v6.111z"/><path d="M31.194 55.12v-4.556h6.222v4.556z" fill="#999"/><path d="M37.194 56.898v-8.111h2.444v8.111z"/><path d="M31.194 57.231v-2.444h8.444v2.444zm-2.778-2.444v-6.111h2.667v6.111z"/><path d="M16.625 54.834v-6.625h6.25v6.625z" fill="#999"/><path d="M22.449 49.041l-.417-3.917h49.583v3.917z" fill="#fc9"/><path d="M19.774 48.572v-2.857h2.571v2.857z"/><g fill="#fc9"><path d="M18.699 44.458v-5.083h2.583l-1 5.917z"/><path d="M19.783 46.041l.167-6.75h54.333v6.75zm2.276-33.469l.25-10.286h49.179l.571 10.286z"/><path d="M19.631 12.286V5.429h54.571v6.857z"/><path d="M18.202 40.143V6.572h56.714v33.571z"/></g><path d="M16.916 45.572V5.857h2.714v39.714zM22.405 52v-3.286h49.226V52z"/><path d="M71.488 48.714v-2.857h2.714v2.857z"/><path d="M74.202 45.857V6h2.714v39.857zm-2.714-40V3.143h2.571v2.714zm-49.429-3V0H71.63v2.857zm-2.428 3V3.286h2.714v2.571z"/><g fill="#f9f"><path d="M22.245 40.469V11.581h49v28.889z"/><path d="M25.245 43.692v-35h43.111v35z"/><path d="M25.245 43.692v-35h43.111v35z"/><path d="M28.134 45.692V5.247h37.222v40.444z"/></g><path d="M28.182 14.73v-3.222h3.111v3.222zm14.222-3.111V8.396h3.111v3.222zm8.667.222V8.619h3.111v3.222zm11.333 5.889v-3.222h3.111v3.222zm-22.667 5.333v-3.222h3.111v3.222zm2.778 8.778v-3.222h3.111v3.222zm-11.667-3.444v-3.222h3.111v3.222zm-5.555 6.444v-3.222h3.111v3.222zm11.555 5.222v-3.222h3.111v3.222zm-8.222 3.111v-3.222h3.111v3.222z" fill="#f39"/><g fill="#999"><path d="M57.732 48.904v-4.341h28.929v4.341z"/><path d="M55.232 45.991v-2.714h35.5v2.714zm28.714-24.5v-4.357h5.714v4.357z"/><path d="M81.018 25.42v-5.786h8.714v5.786z"/><path d="M78.232 27.777v-5.071h11.786v5.071z"/><path d="M63.375 30.777v-6.214h29.257v6.214z"/><path d="M61.518 31.705v-9.5h5.286v9.5z"/><path d="M59.732 32.277V18.92h4.286v13.357z"/><path d="M55.804 33.705V16.563h5.214v17.143zm-3.572 9l.071-.571h2.214v1.429l-1.09-.355z"/><path d="M52.732 44.063l-.198-1.926.698-.86h39.429v2.857z"/><path d="M51.539 42.655V28.589h42.6v14.067z"/></g><path d="M49.746 43.317V28.6h2.914v14.717z"/><path d="M52.66 28.746V17.089h3.206v11.657z"/><path d="M55.72 17.089v-2.477h5.537v2.477z"/><path d="M60.966 19.938v-3.14h3.058v3.14z"/><path d="M64.025 23.229v-3.371h2.967v3.371z"/><path d="M66.502 25.686v-2.768h11.948v2.768z"/><path d="M78.159 23.063v-3.206h2.983v3.206z"/><path d="M81.019 19.858v-2.768h2.968v2.768z"/><path d="M83.988 17.381v-2.768h5.828v2.768z"/><path d="M89.524 28.746V16.798h3.327v11.948z"/><path d="M92.73 43.171V28.309h2.914v14.862z"/><path d="M89.67 46.085V42.88h3.206v3.206zm-36.989.068v-3h2.875v3z"/><path d="M55.556 48.653v-2.875h2.5v2.875zm30.569.302v-3.2h3.4v3.2z"/><path d="M58.125 51.755v-3.2h28v3.2zm2.964-14.55v-5.571h5.5v5.571zm19.929 0v-5.571h5.5v5.571z"/><path d="M61.089 34.92v-3.286h3.071v3.286zm19.929 0v-3.286h3.071v3.286z" fill="#fff"/><path d="M64.018 45.563V39.92h2.5v5.643zm8.786 0V39.92h2.5v5.643zm8.571 0V39.92h2.5v5.643z"/><path d="M64.018 45.777v-2.643h20.071v2.643z"/><path d="M55.619 43.287v-6.2h5.4v6.2zm31.2 0v-6.2h5.867v6.2z" fill="#f99"/><path d="M75.419 37.087v-2.533h2.667v2.533zM13.875 57.334v-8.875h3v8.875z"/><path d="M14 57.334v-3h8.625v3z"/><path d="M22.5 54.334v-5.875h2.75v5.875z"/><path d="M16.75 48.959v-2.75h5.75v2.75z"/><path d="M16.75 48.084v-3.75h2.75v3.75z"/></svg>